<svg width="1440" height="324" version="1.1" xmlns="http://www.w3.org/2000/svg" desc="Created with imagetracer.js version 1.2.6" ><path fill="rgb(0,128,128)" stroke="rgb(0,128,128)" stroke-width="1" opacity="0.00784313725490196" d="M 110.5 0 L 115 0.5 L 110.5 1 L 110.5 0 Z " /><path fill="rgb(0,128,128)" stroke="rgb(0,128,128)" stroke-width="1" opacity="0.00784313725490196" d="M 158.5 0 L 161 1 L 163 10.5 L 162 10.5 L 158.5 0 Z " /><path fill="rgb(0,128,128)" stroke="rgb(0,128,128)" stroke-width="1" opacity="0.00784313725490196" d="M 162.5 12 L 165 13.5 L 167 20.5 L 165 19.5 L 162.5 12 Z " /><path fill="rgb(0,128,128)" stroke="rgb(0,128,128)" stroke-width="1" opacity="0.00784313725490196" d="M 63.5 18 L 62.5 20 L 61 19.5 L 63.5 18 Z " /><path fill="rgb(0,128,128)" stroke="rgb(0,128,128)" stroke-width="1" opacity="0.00784313725490196" d="M 167.5 24 Q 170.9 23.1 169 28.5 L 168 28.5 L 167.5 24 Z " /><path fill="rgb(0,128,128)" stroke="rgb(0,128,128)" stroke-width="1" opacity="0.00784313725490196" d="M 43 32 L 45 32.5 L 43 33.5 L 43 32 Z " /><path fill="rgb(0,128,128)" stroke="rgb(0,128,128)" stroke-width="1" opacity="0.00784313725490196" d="M 171.5 33 Q 169.9 34.8 173 36.5 L 172.5 40 L 170 34.5 L 171.5 33 Z " /><path fill="rgb(0,128,128)" stroke="rgb(0,128,128)" stroke-width="1" opacity="0.00784313725490196" d="M 175.5 44 L 177 49 Q 172.9 50.2 175.5 44 Z " /><path fill="rgb(0,128,128)" stroke="rgb(0,128,128)" stroke-width="1" opacity="0.00784313725490196" d="M 31.5 45 L 31 46.5 Q 31.8 48.8 29.5 48 L 31.5 45 Z " /><path fill="rgb(0,128,128)" stroke="rgb(0,128,128)" stroke-width="1" opacity="0.00784313725490196" d="M 177.5 51 L 178.5 53 L 177.5 51 Z " /><path fill="rgb(0,128,128)" stroke="rgb(0,128,128)" stroke-width="1" opacity="0.00784313725490196" d="M 182.5 52 L 185 52.5 L 182.5 53 L 182.5 52 Z " /><path fill="rgb(0,128,128)" stroke="rgb(0,128,128)" stroke-width="1" opacity="0.00784313725490196" d="M 324.5 53 L 325.5 55 L 324.5 53 Z " /><path fill="rgb(0,128,128)" stroke="rgb(0,128,128)" stroke-width="1" opacity="0.00784313725490196" d="M 327.5 54 L 330 54.5 L 327.5 55 L 327.5 54 Z " /><path fill="rgb(0,128,128)" stroke="rgb(0,128,128)" stroke-width="1" opacity="0.00784313725490196" d="M 331.5 54 L 334 55.5 L 331 56 L 331.5 54 Z " /><path fill="rgb(0,128,128)" stroke="rgb(0,128,128)" stroke-width="1" opacity="0.00784313725490196" d="M 127.5 55 L 130 56.5 L 128.5 57 L 127.5 55 Z " /><path fill="rgb(0,128,128)" stroke="rgb(0,128,128)" stroke-width="1" opacity="0.00784313725490196" d="M 120.5 56 L 122 56.5 L 119.5 58 L 120.5 56 Z " /><path fill="rgb(0,128,128)" stroke="rgb(0,128,128)" stroke-width="1" opacity="0.00784313725490196" d="M 347.5 58 L 348.5 60 Q 345.7 60.7 347.5 58 Z " /><path fill="rgb(0,128,128)" stroke="rgb(0,128,128)" stroke-width="1" opacity="0.00784313725490196" d="M 176.5 60 L 179 66.5 L 177 65.5 L 176.5 60 Z " /><path fill="rgb(0,128,128)" stroke="rgb(0,128,128)" stroke-width="1" opacity="0.00784313725490196" d="M 102.5 62 L 101.5 64 L 102.5 62 Z " /><path fill="rgb(0,128,128)" stroke="rgb(0,128,128)" stroke-width="1" opacity="0.00784313725490196" d="M 97.5 64 L 98 66 L 95 65.5 L 97.5 64 Z " /><path fill="rgb(0,128,128)" stroke="rgb(0,128,128)" stroke-width="1" opacity="0.00784313725490196" d="M 14.5 70 L 15 71.5 L 12 73.5 L 14.5 70 Z " /><path fill="rgb(0,128,128)" stroke="rgb(0,128,128)" stroke-width="1" opacity="0.00784313725490196" d="M 382.5 76 L 386 77.5 L 385.5 79 L 385 77 Q 381.7 77.8 382.5 76 Z " /><path fill="rgb(0,128,128)" stroke="rgb(0,128,128)" stroke-width="1" opacity="0.00784313725490196" d="M 78.5 78 L 79 80 L 76 81.5 L 75.5 83 L 75 81.5 L 78.5 78 Z " /><path fill="rgb(0,128,128)" stroke="rgb(0,128,128)" stroke-width="1" opacity="0.00784313725490196" d="M 389.5 80 L 391 82.5 L 389 81.5 L 389.5 80 Z " /><path fill="rgb(0,128,128)" stroke="rgb(0,128,128)" stroke-width="1" opacity="0.00784313725490196" d="M 185.5 86 L 187 88.5 L 185 87.5 L 185.5 86 Z " /><path fill="rgb(0,128,128)" stroke="rgb(0,128,128)" stroke-width="1" opacity="0.00784313725490196" d="M 397.5 87 L 398.5 89 Q 395.7 89.7 397.5 87 Z " /><path fill="rgb(0,128,128)" stroke="rgb(0,128,128)" stroke-width="1" opacity="0.00784313725490196" d="M 400.5 90 L 401.5 92 L 400.5 90 Z " /><path fill="rgb(0,128,128)" stroke="rgb(0,128,128)" stroke-width="1" opacity="0.00784313725490196" d="M 187.5 92 L 190 97.5 L 189 97.5 L 187.5 92 Z " /><path fill="rgb(0,128,128)" stroke="rgb(0,128,128)" stroke-width="1" opacity="0.00784313725490196" d="M 4.5 93 L 4 94.5 L 3.5 96 L 3 94.5 L 4.5 93 Z " /><path fill="rgb(0,128,128)" stroke="rgb(0,128,128)" stroke-width="1" opacity="0.00784313725490196" d="M 67.5 94 L 66.5 96 L 67.5 94 Z " /><path fill="rgb(0,128,128)" stroke="rgb(0,128,128)" stroke-width="1" opacity="0.00784313725490196" d="M 403.5 94 L 406 95.5 L 404.5 96 L 403.5 94 Z " /><path fill="rgb(0,128,128)" stroke="rgb(0,128,128)" stroke-width="1" opacity="0.00784313725490196" d="M 64.5 97 L 66 97.5 L 65 100 Q 62.3 101.1 63 98.5 L 64.5 97 Z " /><path fill="rgb(0,128,128)" stroke="rgb(0,128,128)" stroke-width="1" opacity="0.00784313725490196" d="M 406.5 97 L 410 99 L 413 103.5 L 410.5 102 L 408 100.5 L 406.5 97 Z " /><path fill="rgb(0,128,128)" stroke="rgb(0,128,128)" stroke-width="1" opacity="0.00784313725490196" d="M 62 101 L 64 101.5 L 61 103.5 L 62 101 Z " /><path fill="rgb(0,128,128)" stroke="rgb(0,128,128)" stroke-width="1" opacity="0.00784313725490196" d="M 191.5 102 L 193 104.5 L 191 103.5 L 191.5 102 Z " /><path fill="rgb(0,128,128)" stroke="rgb(0,128,128)" stroke-width="1" opacity="0.00784313725490196" d="M 60.5 106 L 63 106.5 L 60.5 107 L 60.5 106 Z " /><path fill="rgb(0,128,128)" stroke="rgb(0,128,128)" stroke-width="1" opacity="0.00784313725490196" d="M 67.5 106 L 74 106.5 L 67.5 107 L 67.5 106 Z " /><path fill="rgb(0,128,128)" stroke="rgb(0,128,128)" stroke-width="1" opacity="0.00784313725490196" d="M 75.5 106 L 194 106.5 L 186.5 108 L 185.5 107 L 75.5 107 L 75.5 106 Z " /><path fill="rgb(0,128,128)" stroke="rgb(0,128,128)" stroke-width="1" opacity="0.00784313725490196" d="M 197 109 L 201 109.5 L 199 110 L 199 113.5 L 202 117.5 L 203 122.5 L 201 121.5 L 200 119.5 L 201 117.5 Q 197.3 114.4 197 109 Z " /><path fill="rgb(0,128,128)" stroke="rgb(0,128,128)" stroke-width="1" opacity="0.00784313725490196" d="M 416.5 109 L 418 111.5 L 417 111.5 L 416.5 109 Z " /><path fill="rgb(0,128,128)" stroke="rgb(0,128,128)" stroke-width="1" opacity="0.00784313725490196" d="M 0.5 110 L 1 114.5 L 0 114.5 L 0.5 110 Z " /><path fill="rgb(0,128,128)" stroke="rgb(0,128,128)" stroke-width="1" opacity="0.00784313725490196" d="M 322.5 111 L 325 112.5 L 323.5 113 L 322.5 111 Z " /><path fill="rgb(0,128,128)" stroke="rgb(0,128,128)" stroke-width="1" opacity="0.00784313725490196" d="M 327.5 112 L 330 113.5 L 328.5 114 L 327.5 112 Z " /><path fill="rgb(0,128,128)" stroke="rgb(0,128,128)" stroke-width="1" opacity="0.00784313725490196" d="M 332.5 114 L 333.5 116 L 332.5 114 Z " /><path fill="rgb(0,128,128)" stroke="rgb(0,128,128)" stroke-width="1" opacity="0.00784313725490196" d="M 420.5 114 L 422 116.5 L 420 115.5 L 420.5 114 Z " /><path fill="rgb(0,128,128)" stroke="rgb(0,128,128)" stroke-width="1" opacity="0.00784313725490196" d="M 341.5 118 L 345 119.5 L 342.5 120 L 341.5 118 Z " /><path fill="rgb(0,128,128)" stroke="rgb(0,128,128)" stroke-width="1" opacity="0.00784313725490196" d="M 422.5 118 L 423.5 120 L 422.5 118 Z " /><path fill="rgb(0,128,128)" stroke="rgb(0,128,128)" stroke-width="1" opacity="0.00784313725490196" d="M 203.5 124 Q 203.3 128.3 206 129.5 L 204 130 L 203.5 124 Z " /><path fill="rgb(0,128,128)" stroke="rgb(0,128,128)" stroke-width="1" opacity="0.00784313725490196" d="M 352.5 125 L 357 128.5 L 353.5 126 L 352.5 125 Z " /><path fill="rgb(0,128,128)" stroke="rgb(0,128,128)" stroke-width="1" opacity="0.00784313725490196" d="M 427.5 127 Q 430.1 126.2 429 129.5 L 429.5 131 Q 426.9 131.8 428 128.5 L 427.5 127 Z " /><path fill="rgb(0,128,128)" stroke="rgb(0,128,128)" stroke-width="1" opacity="0.00784313725490196" d="M 360.5 131 L 361.5 133 L 360.5 131 Z " /><path fill="rgb(0,128,128)" stroke="rgb(0,128,128)" stroke-width="1" opacity="0.00784313725490196" d="M 431.5 134 L 433 137.5 L 431 136.5 L 431.5 134 Z " /><path fill="rgb(0,128,128)" stroke="rgb(0,128,128)" stroke-width="1" opacity="0.00784313725490196" d="M 208.5 139 L 211 145.5 L 209 144.5 L 208.5 139 Z " /><path fill="rgb(0,128,128)" stroke="rgb(0,128,128)" stroke-width="1" opacity="0.00784313725490196" d="M 369.5 142 Q 371.8 141.3 371 143.5 L 369.5 142 Z " /><path fill="rgb(0,128,128)" stroke="rgb(0,128,128)" stroke-width="1" opacity="0.00784313725490196" d="M 434.5 142 L 435.5 144 L 434.5 142 Z " /><path fill="rgb(0,128,128)" stroke="rgb(0,128,128)" stroke-width="1" opacity="0.00784313725490196" d="M 435.5 147 Q 437.8 146.3 437 148.5 L 435.5 147 Z " /><path fill="rgb(0,128,128)" stroke="rgb(0,128,128)" stroke-width="1" opacity="0.00784313725490196" d="M 374.5 149 L 375.5 151 Q 372.7 151.7 374.5 149 Z " /><path fill="rgb(0,128,128)" stroke="rgb(0,128,128)" stroke-width="1" opacity="0.00784313725490196" d="M 212.5 150 L 214 152.5 L 213 153.5 L 214.5 156 Q 210.7 154.7 212.5 150 Z " /><path fill="rgb(0,128,128)" stroke="rgb(0,128,128)" stroke-width="1" opacity="0.00784313725490196" d="M 0.5 155 L 1 158.5 L 0 158.5 L 0.5 155 Z " /><path fill="rgb(0,128,128)" stroke="rgb(0,128,128)" stroke-width="1" opacity="0.00784313725490196" d="M 378.5 156 L 381 160.5 L 378.5 161 L 376 160.5 L 379 159.5 L 378.5 156 Z " /><path fill="rgb(0,128,128)" stroke="rgb(0,128,128)" stroke-width="1" opacity="0.00784313725490196" d="M 215.5 159 L 216.5 161 L 215.5 159 Z " /><path fill="rgb(0,128,128)" stroke="rgb(0,128,128)" stroke-width="1" opacity="0.00784313725490196" d="M 221.5 160 L 250 160.5 L 221.5 161 L 221.5 160 Z " /><path fill="rgb(0,128,128)" stroke="rgb(0,128,128)" stroke-width="1" opacity="0.00784313725490196" d="M 60 163 L 66.5 164 Q 67.8 161.8 69 164.5 L 62.5 165 L 60 164.5 L 60 163 Z " /><path fill="rgb(0,128,128)" stroke="rgb(0,128,128)" stroke-width="1" opacity="0.00784313725490196" d="M 209 163 L 211.5 164 L 214 163 L 213.5 167 L 213 165 Q 207.8 166.7 209 163 Z " /><path fill="rgb(0,128,128)" stroke="rgb(0,128,128)" stroke-width="1" opacity="0.00784313725490196" d="M 61.5 166 L 63.5 169 L 61.5 166 Z " /><path fill="rgb(0,128,128)" stroke="rgb(0,128,128)" stroke-width="1" opacity="0.00784313725490196" d="M 215.5 170 L 217 172.5 L 215 171.5 L 215.5 170 Z " /><path fill="rgb(0,128,128)" stroke="rgb(0,128,128)" stroke-width="1" opacity="0.00784313725490196" d="M 2 171 Q 4.7 169.9 4 172.5 L 5 175.5 L 4.5 177 L 2 171 Z " /><path fill="rgb(0,128,128)" stroke="rgb(0,128,128)" stroke-width="1" opacity="0.00784313725490196" d="M 64.5 172 L 66 174.5 L 65 174.5 L 64.5 172 Z " /><path fill="rgb(0,128,128)" stroke="rgb(0,128,128)" stroke-width="1" opacity="0.00784313725490196" d="M 442.5 174 L 443 181.5 L 442 181.5 L 442.5 174 Z " /><path fill="rgb(0,128,128)" stroke="rgb(0,128,128)" stroke-width="1" opacity="0.00784313725490196" d="M 66.5 176 L 69 177.5 L 68 178.5 L 69.5 181 L 66.5 176 Z " /><path fill="rgb(0,128,128)" stroke="rgb(0,128,128)" stroke-width="1" opacity="0.00784313725490196" d="M 217.5 177 L 220 181.5 L 218 180.5 L 217.5 177 Z " /><path fill="rgb(0,128,128)" stroke="rgb(0,128,128)" stroke-width="1" opacity="0.00784313725490196" d="M 70.5 182 L 72.5 185 L 70.5 182 Z " /><path fill="rgb(0,128,128)" stroke="rgb(0,128,128)" stroke-width="1" opacity="0.00784313725490196" d="M 74.5 186 L 77.5 190 Q 80.1 189.3 79 192 L 81 192 L 81 193.5 L 74 187.5 L 74.5 186 Z " /><path fill="rgb(0,128,128)" stroke="rgb(0,128,128)" stroke-width="1" opacity="0.00784313725490196" d="M 221.5 188 L 223 190.5 L 222 190.5 L 221.5 188 Z " /><path fill="rgb(0,128,128)" stroke="rgb(0,128,128)" stroke-width="1" opacity="0.00784313725490196" d="M 10.5 192 L 12 194.5 L 10 193.5 L 10.5 192 Z " /><path fill="rgb(0,128,128)" stroke="rgb(0,128,128)" stroke-width="1" opacity="0.00784313725490196" d="M 442.5 196 L 443 203.5 L 441.5 206 L 441 204.5 L 442.5 196 Z " /><path fill="rgb(0,128,128)" stroke="rgb(0,128,128)" stroke-width="1" opacity="0.00784313725490196" d="M 13.5 197 L 15 199.5 L 13 198.5 L 13.5 197 Z " /><path fill="rgb(0,128,128)" stroke="rgb(0,128,128)" stroke-width="1" opacity="0.00784313725490196" d="M 86.5 198 L 92 201.5 L 90.5 202 L 86.5 198 Z " /><path fill="rgb(0,128,128)" stroke="rgb(0,128,128)" stroke-width="1" opacity="0.00784313725490196" d="M 93.5 202 L 96 203 L 95.5 205 L 93 204 L 93.5 202 Z " /><path fill="rgb(0,128,128)" stroke="rgb(0,128,128)" stroke-width="1" opacity="0.00784313725490196" d="M 17.5 205 L 18.5 207 Q 15.7 207.7 17.5 205 Z " /><path fill="rgb(0,128,128)" stroke="rgb(0,128,128)" stroke-width="1" opacity="0.00784313725490196" d="M 98.5 205 L 104 207.5 L 102.5 208 Q 98.5 207.5 98.5 205 Z " /><path fill="rgb(0,128,128)" stroke="rgb(0,128,128)" stroke-width="1" opacity="0.00784313725490196" d="M 228.5 209 L 231 210.5 L 232 214.5 Q 230.3 217.8 223.5 216 L 222.5 215 L 131 214.5 L 230 213.5 L 228.5 209 Z " /><path fill="rgb(0,128,128)" stroke="rgb(0,128,128)" stroke-width="1" opacity="0.00784313725490196" d="M 110.5 210 L 113 211.5 L 111.5 211 L 110.5 210 Z " /><path fill="rgb(0,128,128)" stroke="rgb(0,128,128)" stroke-width="1" opacity="0.00784313725490196" d="M 21.5 211 L 22.5 213 Q 19.7 213.7 21.5 211 Z " /><path fill="rgb(0,128,128)" stroke="rgb(0,128,128)" stroke-width="1" opacity="0.00784313725490196" d="M 119.5 213 L 122 213.5 L 119.5 214 L 119.5 213 Z " /><path fill="rgb(0,128,128)" stroke="rgb(0,128,128)" stroke-width="1" opacity="0.00784313725490196" d="M 23.5 214 L 26.5 218 L 23.5 214 Z " /><path fill="rgb(0,128,128)" stroke="rgb(0,128,128)" stroke-width="1" opacity="0.00784313725490196" d="M 439.5 215 L 440 219.5 L 439.5 222 Q 437.3 222.8 438 220.5 L 439.5 215 Z " /><path fill="rgb(0,128,128)" stroke="rgb(0,128,128)" stroke-width="1" opacity="0.00784313725490196" d="M 238.5 217 L 241 217.5 L 238.5 218 L 238.5 217 Z " /><path fill="rgb(0,128,128)" stroke="rgb(0,128,128)" stroke-width="1" opacity="0.00784313725490196" d="M 27.5 219 L 30 222.5 L 29 222.5 Q 29.7 219.9 27 221 L 27.5 219 Z " /><path fill="rgb(0,128,128)" stroke="rgb(0,128,128)" stroke-width="1" opacity="0.00784313725490196" d="M 237 222 Q 240 220.8 239 224.5 L 241 230.5 L 239 229.5 L 237 222 Z " /><path fill="rgb(0,128,128)" stroke="rgb(0,128,128)" stroke-width="1" opacity="0.00784313725490196" d="M 32.5 225 L 33.5 227 L 32.5 225 Z " /><path fill="rgb(0,128,128)" stroke="rgb(0,128,128)" stroke-width="1" opacity="0.00784313725490196" d="M 35.5 228 L 41 234.5 L 36 230.5 L 35.5 228 Z " /><path fill="rgb(0,128,128)" stroke="rgb(0,128,128)" stroke-width="1" opacity="0.00784313725490196" d="M 241.5 233 Q 244.5 232.1 243 236.5 L 244 239.5 L 243 239.5 L 241.5 233 Z " /><path fill="rgb(0,128,128)" stroke="rgb(0,128,128)" stroke-width="1" opacity="0.00784313725490196" d="M 371.5 233 L 370.5 235 L 371.5 233 Z " /><path fill="rgb(0,128,128)" stroke="rgb(0,128,128)" stroke-width="1" opacity="0.00784313725490196" d="M 42.5 235 L 45.5 239 L 42.5 235 Z " /><path fill="rgb(0,128,128)" stroke="rgb(0,128,128)" stroke-width="1" opacity="0.00784313725490196" d="M 369.5 236 L 370 237.5 L 366 240.5 L 369.5 236 Z " /><path fill="rgb(0,128,128)" stroke="rgb(0,128,128)" stroke-width="1" opacity="0.00784313725490196" d="M 433.5 238 L 434 239.5 L 430.5 246 L 430 244.5 L 433.5 238 Z " /><path fill="rgb(0,128,128)" stroke="rgb(0,128,128)" stroke-width="1" opacity="0.00784313725490196" d="M 48.5 240 L 51.5 244 L 49 243 L 48.5 240 Z " /><path fill="rgb(0,128,128)" stroke="rgb(0,128,128)" stroke-width="1" opacity="0.00784313725490196" d="M 245.5 242 L 246 244.5 L 245 244.5 L 245.5 242 Z " /><path fill="rgb(0,128,128)" stroke="rgb(0,128,128)" stroke-width="1" opacity="0.00784313725490196" d="M 54 245 L 59 248.5 L 56.5 247 Q 52.8 248 54 245 Z " /><path fill="rgb(0,128,128)" stroke="rgb(0,128,128)" stroke-width="1" opacity="0.00784313725490196" d="M 246.5 247 L 247.5 249 L 246.5 247 Z " /><path fill="rgb(0,128,128)" stroke="rgb(0,128,128)" stroke-width="1" opacity="0.00784313725490196" d="M 429.5 247 L 430 248.5 L 428.5 252 Q 425.3 250.3 429 248.5 L 429.5 247 Z " /><path fill="rgb(0,128,128)" stroke="rgb(0,128,128)" stroke-width="1" opacity="0.00784313725490196" d="M 60.5 250 L 64 251.5 L 62.5 251 Q 59.5 251.5 60.5 250 Z " /><path fill="rgb(0,128,128)" stroke="rgb(0,128,128)" stroke-width="1" opacity="0.00784313725490196" d="M 354.5 251 L 355 252.5 L 352.5 254 L 352.5 253 Q 355 253.7 354.5 251 Z " /><path fill="rgb(0,128,128)" stroke="rgb(0,128,128)" stroke-width="1" opacity="0.00784313725490196" d="M 248.5 252 L 250 254.5 L 249 254.5 L 248.5 252 Z " /><path fill="rgb(0,128,128)" stroke="rgb(0,128,128)" stroke-width="1" opacity="0.00784313725490196" d="M 426.5 253 L 427 254.5 Q 424.3 255.6 425 259 L 423 258.5 L 426.5 253 Z " /><path fill="rgb(0,128,128)" stroke="rgb(0,128,128)" stroke-width="1" opacity="0.00784313725490196" d="M 346.5 257 L 344.5 260 L 344 258 L 346.5 257 Z " /><path fill="rgb(0,128,128)" stroke="rgb(0,128,128)" stroke-width="1" opacity="0.00784313725490196" d="M 76.5 258 L 79 259.5 L 77.5 260 L 76.5 258 Z " /><path fill="rgb(0,128,128)" stroke="rgb(0,128,128)" stroke-width="1" opacity="0.00784313725490196" d="M 342.5 259 L 341.5 261 L 342.5 259 Z " /><path fill="rgb(0,128,128)" stroke="rgb(0,128,128)" stroke-width="1" opacity="0.00784313725490196" d="M 422.5 261 L 421.5 263 L 422.5 261 Z " /><path fill="rgb(0,128,128)" stroke="rgb(0,128,128)" stroke-width="1" opacity="0.00784313725490196" d="M 327.5 265 L 330 265.5 L 321.5 268 L 322.5 266 L 324.5 266 L 327.5 265 Z " /><path fill="rgb(0,128,128)" stroke="rgb(0,128,128)" stroke-width="1" opacity="0.00784313725490196" d="M 318.5 267 L 320 267.5 L 316.5 269 L 316.5 268 L 318.5 267 Z " /><path fill="rgb(0,128,128)" stroke="rgb(0,128,128)" stroke-width="1" opacity="0.00784313725490196" d="M 416.5 268 L 417.5 270 L 415 271.5 L 414.5 273 L 414 271.5 L 416.5 268 Z " /><path fill="rgb(0,128,128)" stroke="rgb(0,128,128)" stroke-width="1" opacity="0.00784313725490196" d="M 119.5 271 L 127 271.5 L 119.5 272 L 119.5 271 Z " /><path fill="rgb(0,128,128)" stroke="rgb(0,128,128)" stroke-width="1" opacity="0.00784313725490196" d="M 131.5 271 L 132 273 L 130 272.5 L 131.5 271 Z " /><path fill="rgb(0,128,128)" stroke="rgb(0,128,128)" stroke-width="1" opacity="0.00784313725490196" d="M 413.5 274 L 412.5 276 Q 410.3 275.3 411 277.5 L 410 280 L 407.5 281 L 409 278.5 L 411.5 275 L 413.5 274 Z " /><path fill="rgb(0,128,128)" stroke="rgb(0,128,128)" stroke-width="1" opacity="0.00784313725490196" d="M 252.5 276 Q 254.8 275.3 254 277.5 L 252.5 276 Z " /><path fill="rgb(0,128,128)" stroke="rgb(0,128,128)" stroke-width="1" opacity="0.00784313725490196" d="M 405.5 282 L 407 282.5 L 403 285.5 L 398.5 291 L 396.5 292 L 398.5 289 Q 400.8 289.8 400 287.5 L 405.5 282 Z " /><path fill="rgb(0,128,128)" stroke="rgb(0,128,128)" stroke-width="1" opacity="0.00784313725490196" d="M 256.5 285 L 258 289.5 L 257 289.5 L 256.5 285 Z " /><path fill="rgb(0,128,128)" stroke="rgb(0,128,128)" stroke-width="1" opacity="0.00784313725490196" d="M 258.5 292 L 261 296.5 L 259 297 L 258.5 292 Z " /><path fill="rgb(0,128,128)" stroke="rgb(0,128,128)" stroke-width="1" opacity="0.00784313725490196" d="M 393.5 293 L 395 293.5 L 391 296.5 L 393.5 293 Z " /><path fill="rgb(0,128,128)" stroke="rgb(0,128,128)" stroke-width="1" opacity="0.00784313725490196" d="M 388.5 297 L 390 297.5 Q 385.3 303.6 378 305 Q 379.1 307.7 376.5 307 L 378.5 304 L 388.5 297 Z " /><path fill="rgb(0,128,128)" stroke="rgb(0,128,128)" stroke-width="1" opacity="0.00784313725490196" d="M 262.5 303 L 263.5 305 Q 260.7 305.7 262.5 303 Z " /><path fill="rgb(0,128,128)" stroke="rgb(0,128,128)" stroke-width="1" opacity="0.00784313725490196" d="M 372.5 308 L 373 310 L 370 309.5 L 372.5 308 Z " /><path fill="rgb(0,128,128)" stroke="rgb(0,128,128)" stroke-width="1" opacity="0.00784313725490196" d="M 365.5 312 L 367 312.5 L 363.5 314 L 363.5 313 L 365.5 312 Z " /><path fill="rgb(0,128,128)" stroke="rgb(0,128,128)" stroke-width="1" opacity="0.00784313725490196" d="M 266.5 316 Q 269.1 315.2 268 318.5 L 267 318.5 L 266.5 316 Z " /><path fill="rgb(0,128,128)" stroke="rgb(0,128,128)" stroke-width="1" opacity="0.00784313725490196" d="M 352.5 317 L 351.5 319 L 350 318.5 L 352.5 317 Z " /><path fill="rgb(0,128,128)" stroke="rgb(0,128,128)" stroke-width="1" opacity="0.00784313725490196" d="M 332.5 323 L 335 323.5 L 332.5 324 L 332.5 323 Z " /><path fill="rgb(44,200,73)" stroke="rgb(44,200,73)" stroke-width="1" opacity="0.9647058823529412" d="M 119.5 0 L 157.5 0 L 158 2.5 L 176 52.5 L 174.5 54 L 125.5 54 L 114.5 56 Q 87.3 63.8 72 83.5 L 62 98.5 L 59 108 L 195 107.5 L 176 55.5 L 177.5 54 L 209.5 54 L 210.5 55 L 322.5 55 L 323.5 56 L 335.5 57 Q 382.3 69.2 409 101.5 Q 427.6 123.4 437 154.5 L 441 177.5 L 441 203.5 L 437 224.5 L 426 252.5 Q 414.5 273.5 397.5 289 Q 386.2 300.2 371.5 308 L 356.5 315 L 338.5 321 L 321.5 324 L 272.5 324 L 270 320.5 L 253 271 L 311.5 271 L 312.5 270 L 323.5 269 Q 349.4 262.4 365 245.5 Q 376.1 234.1 382 217.5 L 380.5 216 L 235.5 216 Q 232.8 217.3 235 218.5 L 252 266.5 L 252 270 L 120.5 270 L 114.5 268 L 108.5 268 L 87.5 262 L 66.5 252 L 54.5 244 L 37 228.5 Q 37.8 226.3 35.5 227 Q 20 210 10 187.5 L 5 174.5 L 2 156.5 L 0 151.5 L 0 138.5 L 2 139.5 Q 4.3 146.2 3 156.5 L 5 159.5 L 7 175 Q 10 173.8 9 177.5 L 21 204.5 L 33.5 221 Q 35.8 220.3 35 222.5 L 37 226 L 40 227.5 Q 39.3 229.8 41.5 229 L 46.5 235 L 51 237.5 Q 50.3 239.8 52.5 239 L 62.5 247 L 72 251 Q 70.9 253.7 73.5 253 L 80.5 257 L 88.5 259 L 90.5 261 L 115.5 267 L 117.5 266 L 123.5 268 L 249.5 268 L 249 266.5 L 247 261.5 L 247 257.5 L 236 229.5 L 235 223.5 L 232 218 L 120.5 218 L 105.5 214 L 90 205.5 Q 90.8 202.9 87.5 204 L 83 202 L 78.5 196 L 76 194.5 Q 62.9 181.1 56 161.5 L 59.5 159 L 60.5 160 L 76.5 160 L 79.5 159 Q 81.3 161.7 87.5 160 L 88.5 159 L 108.5 159 L 109.5 160 L 131.5 160 L 132.5 159 L 141.5 159 L 142.5 160 L 195.5 160 Q 197 157.5 202.5 159 Q 204 161.5 209.5 160 L 211 157.5 L 206 145.5 L 205 139.5 L 202 134.5 L 202 130.5 Q 198.3 126.7 198 119.5 L 196 117.5 L 195 111.5 L 193.5 110 Q 186 108.5 182.5 111 L 181.5 110 L 57 110 L 57 104.5 Q 60.7 101.7 61 95.5 L 68 86.5 L 69 83 Q 71.7 84.1 71 81.5 L 76.5 75 L 79 73.5 Q 78.3 71.3 80.5 72 L 83 71 L 84.5 68 L 90.5 64 L 93 64 Q 91.9 61.3 94.5 62 L 116.5 53 L 142.5 51 L 143.5 52 L 156.5 52 L 157.5 51 L 165.5 51 L 170.5 52 L 173 51.5 L 156 2 L 152.5 1 L 133.5 1 L 131.5 3 L 115.5 3 L 113.5 5 L 106.5 5 L 96.5 7 L 94.5 9 L 81.5 13 L 59.5 25 L 40 41.5 L 28 55.5 L 27 59 Q 24 57.8 25 61.5 Q 20.2 64 20 70 Q 17 68.8 18 72.5 L 14 78.5 L 9 94.5 L 7 96.5 L 5 106.5 L 5 113.5 L 3 115.5 L 3 126.5 L 0.5 132 L 0 119.5 Q 3.7 111.2 4 99.5 L 16 70.5 Q 29.2 46.7 49.5 30 Q 63.3 18.8 80.5 11 L 96.5 5 L 119.5 0 Z M 180 57 Q 180 64 184 69 L 185 76 L 188 81 L 189 87 L 191 89 L 191 92 L 196 105 L 198 106 L 320 106 L 341 113 Q 351 117 359 125 Q 361 124 360 127 L 367 133 Q 366 135 369 134 L 378 147 L 382 158 L 384 160 L 384 164 L 383 165 L 218 165 L 226 188 Q 224 192 228 191 L 227 193 L 235 214 L 383 214 L 384 216 L 384 221 L 378 233 L 373 239 Q 374 241 371 240 L 367 247 L 365 248 L 363 251 L 347 263 L 330 270 L 319 271 L 317 273 L 256 273 L 273 322 L 327 321 L 338 318 L 343 318 L 354 313 Q 359 315 358 311 L 373 305 L 388 294 Q 390 295 389 292 L 396 288 L 411 272 Q 410 268 413 269 L 415 266 Q 414 263 417 264 L 419 260 Q 418 256 421 257 L 432 235 L 434 224 L 436 221 L 438 203 L 439 200 L 439 185 L 438 184 L 439 182 L 438 181 L 437 165 L 432 149 L 432 145 L 430 143 L 424 128 L 414 112 L 411 110 L 408 104 L 397 93 L 395 90 L 391 87 Q 388 88 389 85 L 386 83 Q 383 84 384 81 L 382 81 L 376 76 Q 372 77 373 74 L 357 66 L 339 61 L 336 59 L 320 58 L 319 57 L 180 57 Z M 198 108 L 196 110 L 214 160 L 214 162 L 59 162 Q 63 176 71 186 L 87 201 L 105 211 L 118 215 Q 122 214 124 216 L 233 216 L 223 189 L 222 183 L 217 172 L 215 162 L 238 162 L 239 163 L 284 163 L 286 163 L 290 162 L 292 162 L 317 162 L 318 163 L 327 163 L 328 162 L 349 162 L 350 163 Q 358 164 363 162 L 365 162 L 376 162 L 377 163 L 382 161 Q 376 145 366 135 Q 357 125 346 118 L 330 111 L 315 108 L 198 108 Z " /><path fill="rgb(230,231,232)" stroke="rgb(230,231,232)" stroke-width="1" opacity="0.9725490196078431" d="M 522.5 28 L 765.5 28 L 767 29.5 L 767 72.5 L 765.5 74 L 577.5 74 L 576 75.5 L 576 121.5 L 577.5 123 L 733.5 123 L 735 124.5 L 735 168.5 L 733.5 169 L 732.5 170 L 579.5 170 Q 577.8 167.3 576 171.5 L 576 220.5 L 578.5 223 L 579.5 222 L 758.5 222 L 760.5 223 L 762.5 222 L 763.5 223 L 770 223 L 770 267.5 L 768.5 268 L 766.5 269 L 764.5 269 L 529.5 269 Q 528 266.5 522.5 268 L 521 266.5 L 521 29.5 L 522.5 28 Z M 523 29 L 523 267 L 768 267 L 768 225 L 768 224 L 577 224 L 575 223 L 575 170 L 577 168 L 733 168 L 733 127 L 734 126 L 578 125 L 577 124 L 575 124 L 575 75 L 578 72 L 765 72 L 765 30 L 765 29 L 523 29 Z " /><path fill="rgb(230,231,232)" stroke="rgb(230,231,232)" stroke-width="1" opacity="0.9725490196078431" d="M 852 28 L 1035.5 28 L 1036.5 29 L 1051.5 30 L 1069.5 35 Q 1086.5 41 1098 52.5 Q 1107 61.5 1111 75.5 L 1112 80.5 L 1112 98.5 Q 1108.4 119.4 1094.5 130 L 1083.5 137 L 1072.5 141 L 1068.5 141 L 1067 142.5 L 1069.5 144 L 1078.5 145 L 1098.5 153 L 1116 168.5 L 1122 178.5 L 1125 188.5 L 1126 193.5 L 1126 211.5 Q 1121.7 236.7 1104.5 249 Q 1094.3 257.3 1080.5 262 L 1052.5 268 L 1034.5 268 L 1033.5 269 L 871.5 269 L 870.5 268 L 860.5 268 L 858.5 268 Q 852.3 268.8 852 267.5 L 852 28 Z M 853 29 L 853 267 L 1045 267 L 1046 266 L 1058 266 L 1080 261 L 1097 253 L 1105 247 Q 1120 236 1124 214 L 1124 193 Q 1122 191 1123 187 L 1114 169 Q 1105 157 1092 151 L 1080 147 L 1064 144 Q 1059 145 1060 143 L 1065 140 L 1078 138 L 1095 128 Q 1103 120 1108 109 L 1111 94 L 1111 86 L 1110 85 L 1109 74 L 1102 60 Q 1093 47 1078 40 L 1059 33 L 1042 31 L 1041 30 L 1032 30 L 1031 29 L 853 29 Z " /><path fill="rgb(230,231,232)" stroke="rgb(230,231,232)" stroke-width="1" opacity="0.9725490196078431" d="M 1176.5 28 L 1440 28.5 L 1177 29 L 1177 74 L 1279.5 74 L 1282 75 L 1282 266.5 L 1282.5 267 L 1332.5 267 L 1334 265.5 L 1334 75.5 L 1335.5 74 L 1440 74.5 L 1336.5 75 L 1335 76.5 L 1335 267.5 L 1331.5 268 L 1328.5 269 L 1323.5 268 Q 1321.8 270.8 1315.5 269 L 1314.5 268 L 1303.5 268 Q 1302 270.5 1296.5 269 L 1295.5 268 L 1284.5 268 L 1282.5 269 L 1280 268 L 1280 76.5 L 1278.5 75 L 1175 75 L 1175 29.5 L 1176.5 28 Z " /><path fill="rgb(230,231,232)" stroke="rgb(230,231,232)" stroke-width="1" opacity="0.9725490196078431" d="M 907.5 69 L 1012.5 69 L 1013.5 70 L 1026.5 70 L 1037.5 72 L 1045.5 75 L 1054 81.5 Q 1059.9 88.6 1059 102.5 L 1057 110.5 L 1049.5 119 L 1036.5 125 L 1021.5 126 L 1020.5 127 L 907.5 127 L 905 126 L 905 71.5 L 907.5 69 Z M 907 71 L 907 125 L 1027 125 L 1033 123 L 1038 123 L 1049 118 Q 1055 114 1057 105 L 1057 92 L 1052 81 L 1040 74 L 1024 71 L 907 71 Z " /><path fill="rgb(230,231,232)" stroke="rgb(230,231,232)" stroke-width="1" opacity="0.9725490196078431" d="M 906.5 166 L 1035.5 166 L 1041.5 168 L 1052.5 169 Q 1061.2 171.8 1066 178.5 L 1070 185.5 L 1071 201.5 L 1068 211.5 L 1061.5 219 L 1047.5 225 L 1030.5 226 L 1029.5 227 L 907.5 227 L 905 226 L 905 167.5 L 906.5 166 Z M 909 167 L 907 169 L 907 225 L 1036 225 L 1053 222 L 1063 216 L 1068 208 L 1070 198 L 1069 189 L 1066 181 Q 1061 174 1054 171 L 1040 168 L 1026 168 L 1025 167 L 909 167 Z " /><path fill="rgb(254,254,254)" stroke="rgb(254,254,254)" stroke-width="1" opacity="0.996078431372549" d="M 523 29 L 764.5 29 L 765 29.5 L 765 72 L 747 71.5 L 764 71 L 763 63.5 L 764 62.5 L 764 31 L 524.5 31 L 524 34.5 L 523 34.5 L 523 29 Z " /><path fill="rgb(254,254,254)" stroke="rgb(254,254,254)" stroke-width="1" opacity="0.996078431372549" d="M 853 29 L 1030.5 29 L 1031.5 30 L 1040.5 30 L 1048 31.5 L 1039.5 32 L 1038.5 31 L 854 31 L 854 252.5 L 856 264 L 859 264.5 L 855.5 265 L 854 264.5 L 854.5 266 L 1039.5 266 L 1042.5 265 L 1044.5 265 L 1057.5 265 L 1059.5 263 L 1075.5 261 Q 1077.7 257.5 1083 258 Q 1081.9 255.3 1084.5 256 L 1086.5 257 L 1089.5 253 L 1092 254 Q 1090.9 251.3 1093.5 252 L 1099 250 L 1100.5 247 L 1108 243 L 1109 239 Q 1113.9 240.8 1112 234.5 L 1119 225.5 L 1123 211.5 L 1123 193.5 L 1120 185.5 L 1120 180.5 L 1110.5 166 Q 1108.3 166.8 1109 164.5 L 1103 160.5 L 1101.5 158 L 1085.5 150 L 1081.5 150 L 1070.5 146 L 1059.5 146 L 1057 143.5 Q 1056.3 138.8 1059.5 138 L 1078.5 136 L 1086.5 130 Q 1090.3 130.8 1091 128.5 L 1093 125.5 L 1101 119 L 1101 115.5 L 1103 112 L 1105 111.5 Q 1102.8 110.3 1104 105.5 L 1108 102.5 L 1109 98.5 L 1109 78.5 L 1105 66.5 L 1101 62.5 L 1101 59 L 1098 57.5 L 1092.5 51 Q 1089.2 52.1 1090 49.5 L 1082 43.5 L 1083.5 44 L 1089.5 47 L 1102 59.5 L 1109 73.5 L 1110 84.5 L 1111 85.5 L 1111 93.5 L 1108 108.5 Q 1103.2 120.2 1094.5 128 L 1077.5 138 L 1064.5 140 L 1060 142.5 Q 1059.1 145.5 1063.5 144 L 1079.5 147 L 1091.5 151 Q 1105.1 157.4 1114 168.5 L 1123 186.5 Q 1121.8 191.2 1124 192.5 L 1124 213.5 Q 1119.6 235.6 1104.5 247 L 1096.5 253 L 1079.5 261 L 1057.5 266 L 1045.5 266 L 1044.5 267 L 853 267 L 853 29 Z " /><path fill="rgb(254,254,254)" stroke="rgb(254,254,254)" stroke-width="1" opacity="0.996078431372549" d="M 1177 29 L 1439.5 29 L 1440 29.5 L 1440 74 L 1335.5 74 L 1334 75.5 L 1334 265.5 L 1332.5 267 L 1282 266.5 L 1332 265.5 L 1328 263.5 L 1329.5 261 L 1332 260.5 L 1332 81.5 L 1333 80.5 L 1333 72.5 L 1334.5 71 L 1335 73 L 1388.5 73 L 1389.5 72 L 1400.5 71 L 1401.5 72 L 1418.5 73 L 1421.5 72 Q 1423.3 74.8 1429.5 73 Q 1431.3 70.3 1437.5 72 L 1439 70.5 L 1439 33.5 L 1438 31 L 1178.5 31 L 1178 31.5 L 1178 64.5 L 1180 67.5 L 1179 71 L 1181.5 70 L 1182.5 71 L 1197.5 71 Q 1199 74.5 1205.5 73 L 1208.5 72 L 1209.5 73 L 1227.5 73 L 1229.5 72 L 1230.5 73 L 1282 73 Q 1283.1 75.7 1280.5 75 L 1279.5 74 L 1177 74 L 1177 29 Z " /><path fill="rgb(254,254,254)" stroke="rgb(254,254,254)" stroke-width="1" opacity="0.996078431372549" d="M 1050.5 32 L 1054 32.5 L 1050.5 33 L 1050.5 32 Z " /><path fill="rgb(254,254,254)" stroke="rgb(254,254,254)" stroke-width="1" opacity="0.996078431372549" d="M 1055.5 33 L 1064 35.5 L 1061.5 36 L 1055.5 34 L 1055.5 33 Z " /><path fill="rgb(254,254,254)" stroke="rgb(254,254,254)" stroke-width="1" opacity="0.996078431372549" d="M 1065.5 36 L 1070.5 37 L 1081 42.5 L 1079.5 43 L 1065.5 37 L 1065.5 36 Z " /><path fill="rgb(254,254,254)" stroke="rgb(254,254,254)" stroke-width="1" opacity="0.996078431372549" d="M 523.5 37 L 524 266 L 762 265.5 Q 759.7 264.3 762.5 263 L 766.5 264 L 767 225 L 575.5 225 L 574 223.5 L 574 168.5 L 575.5 167 L 579.5 166 L 580.5 167 L 722.5 167 L 727 166 Q 725.9 163.3 728.5 164 L 732.5 163 L 732 164.5 L 733 168 L 576.5 168 L 575 169.5 L 575 222.5 L 576.5 224 L 767.5 224 L 768 224.5 L 768 267 L 523 267 L 523.5 37 Z " /><path fill="rgb(254,254,254)" stroke="rgb(254,254,254)" stroke-width="1" opacity="0.996078431372549" d="M 905.5 68 L 1012 68.5 L 907.5 69 L 905 71.5 L 905 125.5 L 906.5 126 L 907.5 127 L 1020.5 127 L 1021.5 126 L 1034.5 125 L 1034.5 126 L 1024.5 128 L 905.5 128 L 904 126.5 L 904 69.5 L 905.5 68 Z " /><path fill="rgb(254,254,254)" stroke="rgb(254,254,254)" stroke-width="1" opacity="0.996078431372549" d="M 1013.5 69 Q 1038.4 67.1 1051 77.5 L 1050.5 79 L 1047.5 76 L 1037.5 72 L 1026.5 70 L 1013.5 70 L 1013.5 69 Z " /><path fill="rgb(254,254,254)" stroke="rgb(254,254,254)" stroke-width="1" opacity="0.996078431372549" d="M 573 70 L 580 71.5 L 575 74.5 L 575 123.5 L 577 124 L 577 126.5 L 574.5 128 Q 571.5 127.5 572 123.5 L 574 121.5 L 574 75.5 L 573 70 Z " /><path fill="rgb(254,254,254)" stroke="rgb(254,254,254)" stroke-width="1" opacity="0.996078431372549" d="M 1052.5 79 L 1058 83 L 1060 92.5 L 1058 93.5 L 1057 86.5 L 1052.5 79 Z " /><path fill="rgb(254,254,254)" stroke="rgb(254,254,254)" stroke-width="1" opacity="0.996078431372549" d="M 1059.5 95 Q 1062.3 96.3 1060 97.5 L 1061 105.5 L 1060 107.5 L 1060 109.5 L 1053.5 118 Q 1051.3 117.3 1052 119.5 L 1041.5 126 L 1037 124.5 Q 1048.9 121.9 1055 113.5 L 1058 107.5 L 1059.5 95 Z " /><path fill="rgb(254,254,254)" stroke="rgb(254,254,254)" stroke-width="1" opacity="0.996078431372549" d="M 731.5 125 L 734 125.5 L 732.5 130 L 729 127.5 L 732 126.5 L 731.5 125 Z " /><path fill="rgb(254,254,254)" stroke="rgb(254,254,254)" stroke-width="1" opacity="0.996078431372549" d="M 732.5 146 L 733 160.5 L 732 160.5 L 732.5 146 Z " /><path fill="rgb(254,254,254)" stroke="rgb(254,254,254)" stroke-width="1" opacity="0.996078431372549" d="M 904 164 L 907.5 165 L 1032.5 165 L 1034.5 164 Q 1038.5 167 1046.5 166 L 1048 167.5 L 1041.5 168 L 1035.5 166 L 906.5 166 L 905 167.5 L 905 226 L 907.5 227 L 1029.5 227 Q 1031.3 224.3 1037.5 226 L 1037.5 227 L 1034.5 228 L 905.5 228 L 904 226.5 L 904 164 Z " /><path fill="rgb(254,254,254)" stroke="rgb(254,254,254)" stroke-width="1" opacity="0.996078431372549" d="M 1049.5 168 L 1059 170 Q 1057.9 172.7 1060.5 172 L 1066 175.5 L 1067 179 Q 1069.7 177.9 1069 180.5 L 1072 187.5 L 1072 207.5 L 1066.5 217 L 1062 219 L 1060.5 222 Q 1054.4 221.4 1052.5 225 L 1048.5 225 L 1048.5 224 Q 1060.4 222.4 1066 214.5 L 1070 206.5 L 1071 191.5 L 1069 182.5 L 1060.5 173 L 1052.5 169 L 1049.5 169 L 1049.5 168 Z " /><path fill="rgb(254,254,254)" stroke="rgb(254,254,254)" stroke-width="1" opacity="0.996078431372549" d="M 1043.5 225 Q 1047.3 224.3 1048 226.5 L 1045.5 227 L 1043.5 225 Z " /><path fill="rgb(254,254,254)" stroke="rgb(254,254,254)" stroke-width="1" opacity="0.996078431372549" d="M 1282.5 254 L 1283 264.5 L 1282 264.5 L 1282.5 254 Z " /><path fill="rgb(0,0,0)" stroke="rgb(0,0,0)" stroke-width="1" opacity="0" d="M 0 0 L 109 0.5 L 98.5 2 L 89.5 6 L 86 6 Q 87.3 9.3 82.5 8 L 76 10 Q 77.3 13 73.5 12 L 59.5 21 L 57 21 Q 58.1 23.7 55.5 23 L 47 29 Q 48.1 31.7 45.5 31 L 43 32 L 41.5 35 L 39 36.5 L 37.5 39 L 35 40.5 L 33.5 43 Q 31.3 42.3 32 44.5 Q 25.5 49.5 23 57 Q 20 55.8 21 59.5 Q 14 66 12 76 Q 9 74.8 10 78.5 L 8 86 Q 4.7 84.7 6 89.5 L 2 97.5 L 0.5 109 L 0 0 Z " /><path fill="rgb(0,0,0)" stroke="rgb(0,0,0)" stroke-width="1" opacity="0" d="M 159.5 0 L 1439.5 0 L 1440 0.5 L 1440 25 L 1175.5 25 L 1173 27.5 L 1173 75.5 L 1174.5 77 L 1278 77.5 L 1277 78.5 L 1277 267.5 L 1278 270 Q 1282.5 271.7 1290.5 271 L 1291.5 270 L 1337 270 L 1337 77 L 1440 77 L 1440 323.5 L 1439.5 324 L 335.5 324 L 335.5 323 L 348 321 Q 346.7 317.7 351.5 319 L 359 317 Q 357.8 314 361.5 315 L 370.5 310 L 373 310 Q 371.9 307.3 374.5 308 Q 390.9 299.4 403 286.5 L 404.5 284 L 407 282.5 L 408.5 280 Q 410.8 280.8 410 278.5 L 416.5 270 Q 418.8 270.8 418 268.5 L 423 261.5 L 423 259 Q 426 260.3 425 256.5 Q 427.8 255.4 427 252 Q 430 253.3 429 249.5 L 437 231.5 L 438 222 Q 441.5 223.1 440 215.5 Q 442.8 213.8 441 207.5 L 443 203.5 L 443 174.5 L 441 171.5 L 440 157 Q 436 158.4 438 151.5 L 436 143.5 L 430 132.5 L 429 127 Q 426 128.3 427 124.5 L 418 109 Q 415.3 110.1 416 107.5 L 410 99 L 407 97.5 L 404.5 94 Q 402.3 94.8 403 92.5 L 395 85.5 Q 395.8 83.3 393.5 84 Q 391.1 79.5 386 79 L 384.5 76 L 380 75 Q 381.1 72.3 378.5 73 L 358.5 62 L 349.5 60 L 347.5 58 Q 340.7 58.3 337.5 55 L 325.5 54 L 324.5 53 L 185.5 53 Q 184 50.5 178.5 52 L 177 50.5 L 172 33.5 L 170 31.5 L 169 24.5 L 162 8.5 L 161 1 L 159.5 0 Z M 522 25 L 519 28 L 519 270 L 526 270 L 527 271 L 529 270 L 772 270 L 772 270 L 772 221 L 770 220 L 578 220 L 578 173 L 579 172 L 736 172 L 737 171 Q 736 165 738 164 L 738 128 L 737 123 L 736 121 L 578 121 L 578 77 L 579 76 L 768 76 L 769 74 L 769 28 L 768 27 L 768 25 L 522 25 Z M 852 25 L 850 27 L 850 270 L 856 271 L 860 270 L 1057 270 L 1058 269 L 1065 269 L 1065 267 Q 1072 268 1077 265 Q 1082 267 1081 263 L 1088 262 L 1095 258 Q 1097 259 1096 256 Q 1099 257 1101 254 Q 1104 255 1103 252 L 1111 247 Q 1110 244 1113 245 L 1122 232 Q 1121 228 1124 229 L 1128 216 L 1128 204 L 1129 203 L 1128 201 L 1128 190 L 1124 179 Q 1125 175 1122 176 Q 1123 173 1120 172 Q 1121 168 1118 169 L 1117 166 L 1114 164 L 1113 161 Q 1110 162 1111 160 L 1103 153 Q 1099 154 1100 151 L 1089 146 Q 1084 147 1085 144 L 1077 143 L 1084 139 Q 1086 140 1085 137 L 1091 136 L 1092 133 L 1098 131 L 1107 119 Q 1106 116 1109 117 L 1111 111 Q 1110 106 1113 107 L 1114 102 L 1114 78 L 1113 73 L 1103 55 L 1100 53 L 1098 49 Q 1095 50 1096 48 L 1083 38 L 1074 34 L 1071 34 L 1069 32 L 1062 31 L 1060 29 L 1055 28 L 1038 27 L 1036 25 L 852 25 Z " /><path fill="rgb(0,0,0)" stroke="rgb(0,0,0)" stroke-width="1" opacity="0" d="M 133.5 55 L 173.5 55 L 174 57.5 L 179 67.5 L 181 76.5 L 183 78.5 L 183 81.5 L 187 89.5 L 187 93.5 L 192 105.5 L 62 106 Q 69.1 85.4 85.5 73 L 95.5 66 L 108.5 61 L 110.5 59 L 121.5 57 L 129.5 57 L 133.5 55 Z " /><path fill="rgb(0,0,0)" stroke="rgb(0,0,0)" stroke-width="1" opacity="0" d="M 908.5 73 L 1021.5 73 L 1025.5 75 L 1032.5 75 L 1042 77 Q 1040.8 80 1044.5 79 L 1049 81 L 1051.5 85 Q 1054.5 84.1 1053 88.5 L 1055 95.5 L 1055 101.5 Q 1052.7 102.8 1054 107.5 L 1049.5 114 L 1039.5 120 L 1028.5 122 L 1018.5 122 L 1017.5 123 L 909 123 L 909 74.5 L 908.5 73 Z " /><path fill="rgb(0,0,0)" stroke="rgb(0,0,0)" stroke-width="1" opacity="0" d="M 199 110 L 313.5 110 Q 315.3 112.7 321.5 111 L 323.5 113 L 331.5 114 Q 333.3 117.2 338.5 117 L 358 129 L 359.5 132 L 362 133.5 L 363.5 136 L 366 137.5 L 374 148.5 L 374 151 Q 376.7 149.9 376 152.5 L 380 160.5 L 378.5 160 Q 372.2 158.2 370.5 161 L 250.5 161 L 249.5 160 L 216.5 160 L 215 158.5 L 209 137.5 L 204 127.5 L 202 117.5 Q 198.5 115.3 199 110 Z " /><path fill="rgb(0,0,0)" stroke="rgb(0,0,0)" stroke-width="1" opacity="0" d="M 0.5 161 L 3 175.5 L 8 185.5 L 10 193.5 L 16 202.5 L 17 207 Q 19.7 205.9 19 208.5 L 21 213 Q 23.7 211.9 23 214.5 L 40.5 235 L 49 241 Q 47.9 243.7 50.5 243 L 54 245.5 Q 53.2 248.1 56.5 247 Q 59 251.8 65 252 Q 63.9 254.7 66.5 254 L 72 256 Q 70.8 259 74.5 258 L 88.5 265 L 101 267 Q 99.7 270.7 105.5 269 L 106.5 270 L 114.5 270 L 119.5 272 L 129.5 272 L 130.5 273 L 251 273 Q 254.3 277.5 255 285.5 L 257 287.5 L 259 296.5 L 261 298.5 L 263 307.5 L 266 312.5 L 266 316.5 L 270 323.5 L 0 324 L 0.5 161 Z " /><path fill="rgb(0,0,0)" stroke="rgb(0,0,0)" stroke-width="1" opacity="0" d="M 69.5 164 L 208.5 164 L 213 165 L 217 174.5 L 218 180.5 L 220 182.5 L 225 200.5 L 228 204.5 Q 227.2 210.8 230 213.5 L 124.5 214 Q 122.7 211.3 116.5 213 Q 112 208.8 104 209 Q 105.1 206.3 102.5 207 L 96 205 Q 97.1 202.3 94.5 203 L 81 194 L 78.5 190 Q 76.3 190.8 77 188.5 L 69 179.5 L 62 165 L 68.5 165 L 69.5 164 Z " /><path fill="rgb(0,0,0)" stroke="rgb(0,0,0)" stroke-width="1" opacity="0" d="M 908.5 170 L 1040.5 170 L 1042.5 172 L 1052.5 173 L 1061 178.5 L 1062.5 181 Q 1064.8 180.3 1064 182.5 L 1066 187.5 L 1067 197.5 L 1065 208.5 L 1057.5 217 L 1051.5 220 L 1040.5 221 L 1039.5 222 L 959.5 223 L 958.5 222 L 909 222 L 909 171.5 L 908.5 170 Z " /><path fill="rgb(0,0,0)" stroke="rgb(0,0,0)" stroke-width="1" opacity="0" d="M 237 218 L 380 218.5 L 378 220.5 L 376 228 Q 373 226.8 374 230.5 Q 368.3 235 366 242 L 362 244.5 L 360.5 247 L 354 251 Q 355.1 253.7 352.5 253 L 340.5 261 L 330.5 265 L 317.5 268 Q 312 266.5 310.5 269 L 256.5 269 L 254 268 L 246 242.5 L 244 240.5 L 243 233 Q 239.7 234.3 241 229.5 L 237 218 Z " /><path fill="rgb(117,161,129)" stroke="rgb(117,161,129)" stroke-width="1" opacity="0.2823529411764706" d="M 109.5 0 L 114 1.5 L 96.5 5 L 72.5 15 Q 48.4 27.4 32 47.5 Q 19.3 61.8 11 80.5 L 4 99.5 L 1.5 114 L 0 109.5 Q 2.3 108.3 1 103.5 L 3 100.5 L 2 98.5 Q 6.2 94 6 86 Q 9 87.3 8 83.5 L 10 80.5 L 10 78.5 L 14 72.5 L 13.5 71 L 15 71.5 L 14 69.5 L 16 69 L 17 64 Q 20 65.3 19 61.5 L 27.5 50 L 29 50 L 29 48 Q 31.7 49.1 31 46.5 L 32 44 L 34 44 Q 33 41 36 42 L 36 39 L 37.5 39 L 39 36 L 45 32.5 Q 44.3 30.3 46.5 31 L 50 29 L 51.5 26 L 54 26 Q 52.9 23.3 55.5 24 L 58 23 Q 56.9 20.3 59.5 21 L 64 18.5 Q 63.3 16.3 65.5 17 L 71 15 Q 69.8 12 73.5 13 Q 77.8 8 86 8 Q 84.7 4.3 90.5 6 L 96.5 3 L 109.5 0 Z " /><path fill="rgb(117,161,129)" stroke="rgb(117,161,129)" stroke-width="1" opacity="0.2823529411764706" d="M 115.5 0 L 119 0.5 L 115.5 1 L 115.5 0 Z " /><path fill="rgb(117,161,129)" stroke="rgb(117,161,129)" stroke-width="1" opacity="0.2823529411764706" d="M 159.5 4 L 160.5 6 L 162 5.5 L 161 8.5 L 163 11.5 L 161 12 L 159.5 4 Z " /><path fill="rgb(117,161,129)" stroke="rgb(117,161,129)" stroke-width="1" opacity="0.2823529411764706" d="M 162.5 13 L 168 23.5 L 168 25.5 L 168.5 29 L 170 28.5 L 169 30.5 L 172 34.5 L 171 36.5 L 172 40 L 174 40.5 Q 171.5 42 175 43.5 L 175 48.5 L 177 49 L 177 51.5 Q 178.2 54.3 179.5 52 L 182.5 53 L 323.5 53 L 325.5 55 L 327.5 55 L 330.5 54 L 331 56 L 335.5 55 L 341.5 58 L 343.5 57 L 347 58 Q 345.6 61.7 351.5 60 L 354.5 62 L 356 61.5 Q 355.3 63.8 357.5 63 L 359 62.5 Q 358.1 65.5 362.5 64 L 367 66 L 367 68 L 371 68 L 371 69.5 L 374 70.5 L 374 72 L 378 72 Q 376.9 74.7 379.5 74 L 382 75 L 382 77 L 385 77 L 385 79 Q 387.7 77.9 387 80.5 L 389 80.5 L 390.5 83 Q 392.3 80.3 394 84.5 Q 393.3 86.8 395.5 86 L 397 89 Q 400.8 87.5 400 90.5 L 403 92 L 404.5 96 L 407 96.5 L 406 97.5 L 407.5 100 Q 381.2 68.8 335.5 57 L 323.5 56 L 322.5 55 L 210.5 55 L 209.5 54 L 177.5 54 L 176 56.5 L 190 94.5 L 188 95.5 L 188 93.5 L 187 87.5 L 184 84.5 Q 186.5 83 183 81.5 Q 183.6 76.9 181 75.5 L 181.5 74 L 180 73.5 L 181 71 Q 178.3 72.1 179 69.5 L 179 67.5 L 177 60 Q 174 61.3 175 57.5 L 174.5 55 L 131.5 55 L 124.5 57 L 121.5 56 L 118.5 58 L 116.5 57 L 108.5 61 L 102.5 62 L 98.5 65 L 96.5 65 Q 94.3 64.3 95 66.5 L 90.5 70 L 89 69.5 L 87 72.5 L 85 72.5 L 83.5 75 Q 80.2 73.9 81 76.5 L 79.5 79 Q 78.3 76.8 77 79.5 Q 79.3 80.8 76.5 82 L 75 81.5 L 72.5 87 L 71 86.5 L 68.5 92 L 67 92.5 Q 69.5 94 66 95.5 Q 66.8 97.8 64.5 97 L 63 99.5 L 63.5 101 Q 61.3 100.3 62 102.5 L 62 104.5 Q 62.8 106.8 60.5 106 L 60.5 107 L 66.5 106 Q 68 108.5 73.5 107 L 75.5 107 L 186 107.5 L 59 108 Q 67 84.2 85.5 70 L 105.5 59 L 119.5 55 Q 124.2 56.3 125.5 54 L 174.5 54 L 176 52.5 L 170 35.5 L 170.5 34 Q 167.9 34.8 169 31.5 L 163 17.5 L 162.5 13 Z " /><path fill="rgb(117,161,129)" stroke="rgb(117,161,129)" stroke-width="1" opacity="0.2823529411764706" d="M 521.5 25 L 767.5 25 L 768 26.5 L 769 27.5 L 769 73.5 L 768 76 L 578.5 76 L 578 76.5 L 578 121 L 735.5 121 L 737 122.5 L 738 127.5 L 738 163.5 Q 735.5 165 737 170.5 L 735.5 172 L 578.5 172 L 578 172.5 L 578 220 L 769.5 220 L 772 221 L 772 269.5 L 771.5 270 L 528.5 270 L 526.5 271 L 525.5 270 L 519 270 L 519 27.5 L 521.5 25 Z M 523 28 L 521 30 L 521 267 L 523 268 Q 528 267 530 269 L 765 269 L 767 269 L 769 268 L 770 268 L 770 223 L 764 223 L 763 222 L 761 223 L 759 222 L 580 222 L 579 223 L 576 221 L 576 172 Q 578 167 580 170 L 733 170 L 734 169 L 735 169 L 735 125 L 734 123 L 578 123 L 576 122 L 576 76 L 578 74 L 766 74 L 767 73 L 767 30 L 766 28 L 523 28 Z " /><path fill="rgb(117,161,129)" stroke="rgb(117,161,129)" stroke-width="1" opacity="0.2823529411764706" d="M 851.5 25 L 1035.5 25 L 1037.5 27 L 1054.5 28 L 1059.5 29 L 1061.5 31 L 1068.5 32 L 1070.5 34 L 1073.5 34 L 1082.5 38 L 1096 47.5 Q 1095.3 49.8 1097.5 49 L 1100 53 L 1103 54.5 L 1113 72.5 L 1114 77.5 L 1114 101.5 L 1113 107 Q 1109.7 105.7 1111 110.5 L 1109 117 Q 1106.3 115.9 1107 118.5 L 1098 131 L 1092 133 L 1090.5 136 L 1085 137 Q 1086.1 139.7 1083.5 139 L 1077 142.5 L 1085 144 Q 1083.7 147.3 1088.5 146 L 1100 151 Q 1098.8 154 1102.5 153 L 1111 159.5 Q 1110.3 161.8 1112.5 161 L 1114 164 L 1117 165.5 L 1118 169 Q 1121 167.8 1120 171.5 Q 1122.8 172.6 1122 176 Q 1125 174.8 1124 178.5 L 1128 189.5 L 1128 200.5 L 1129 202.5 L 1128 203.5 L 1128 215.5 L 1124 229 Q 1121 227.8 1122 231.5 L 1112.5 245 Q 1110.3 244.3 1111 246.5 L 1103 252 Q 1104.3 255 1100.5 254 Q 1099.4 256.8 1096 256 Q 1097.1 258.7 1094.5 258 L 1087.5 262 L 1081 263 Q 1082.3 266.7 1076.5 265 Q 1071.9 267.8 1065 267 L 1064.5 269 L 1057.5 269 L 1056.5 270 L 859.5 270 L 855.5 271 L 850 270 L 850 26.5 L 851.5 25 Z M 852 28 L 852 268 Q 852 269 859 268 L 861 268 L 871 268 L 872 269 L 1034 269 L 1035 268 L 1053 268 L 1081 262 Q 1094 257 1105 249 Q 1122 237 1126 212 L 1126 194 L 1125 189 L 1122 179 L 1116 169 L 1099 153 L 1079 145 L 1070 144 L 1067 143 L 1069 141 L 1073 141 L 1084 137 L 1095 130 Q 1108 119 1112 99 L 1112 81 L 1111 76 Q 1107 62 1098 53 Q 1086 41 1070 35 L 1052 30 L 1037 29 L 1036 28 L 852 28 Z " /><path fill="rgb(117,161,129)" stroke="rgb(117,161,129)" stroke-width="1" opacity="0.2823529411764706" d="M 1175.5 25 L 1439.5 25 L 1440 28 L 1176.5 28 L 1175 29.5 L 1175 75 L 1278.5 75 L 1280 76.5 L 1280 268 L 1283.5 269 L 1284.5 268 L 1295.5 268 Q 1297 270.5 1302.5 269 L 1303.5 268 L 1314.5 268 Q 1316.3 270.8 1322.5 269 L 1327.5 268 L 1330.5 269 L 1335 268 L 1335 76.5 L 1336.5 75 L 1439.5 75 L 1440 77 L 1337 77 L 1337 269.5 L 1336.5 270 L 1291.5 270 L 1290.5 271 L 1282.5 271 L 1278 270 L 1277 267.5 L 1277 78.5 L 1277.5 77 L 1174.5 77 L 1173 75.5 L 1173 27.5 L 1175.5 25 Z " /><path fill="rgb(117,161,129)" stroke="rgb(117,161,129)" stroke-width="1" opacity="0.2823529411764706" d="M 907 71 L 1023.5 71 L 1039.5 74 L 1052 81 L 1057 91.5 L 1057 104.5 Q 1055.3 113.8 1048.5 118 L 1037.5 123 L 1032.5 123 L 1026.5 125 L 907 125 L 907 71 Z M 909 73 L 909 75 L 909 123 L 1018 123 L 1019 122 L 1029 122 L 1040 120 L 1050 114 L 1054 108 Q 1053 103 1055 102 L 1055 96 L 1053 89 Q 1054 84 1052 85 L 1049 81 L 1045 79 Q 1041 80 1042 77 L 1033 75 L 1026 75 L 1022 73 L 909 73 Z " /><path fill="rgb(117,161,129)" stroke="rgb(117,161,129)" stroke-width="1" opacity="0.2823529411764706" d="M 190.5 96 L 194 106 L 192 105.5 L 192 103.5 L 190 100.5 L 190 98.5 L 190.5 96 Z " /><path fill="rgb(117,161,129)" stroke="rgb(117,161,129)" stroke-width="1" opacity="0.2823529411764706" d="M 409.5 102 L 414 104 L 416.5 110 L 418 109.5 L 417 112 L 420 113.5 L 421.5 117 L 423 117.5 Q 420.8 118.8 423.5 120 Q 425.8 119.3 425 121.5 L 428 131 Q 430.7 129.9 430 132.5 L 431.5 137 L 433 136.5 L 432 137.5 L 434 141.5 L 436 146.5 Q 433.5 148 437 149.5 L 438 156.5 L 440 159.5 L 440 165.5 L 442 173.5 L 443 195.5 L 441 205.5 L 441 207.5 L 441 214.5 L 439 215 L 441 203.5 L 441 177.5 L 437 154.5 L 431 137.5 Q 422 116.9 409.5 102 Z " /><path fill="rgb(117,161,129)" stroke="rgb(117,161,129)" stroke-width="1" opacity="0.2823529411764706" d="M 190.5 107 L 195 107.5 L 190.5 108 L 190.5 107 Z " /><path fill="rgb(117,161,129)" stroke="rgb(117,161,129)" stroke-width="1" opacity="0.2823529411764706" d="M 197.5 108 L 314.5 108 L 329.5 111 L 345.5 118 Q 357.4 124.6 366 134.5 Q 376.5 145 382 160.5 L 376.5 163 L 375.5 162 L 364.5 162 L 362.5 162 Q 357.8 164.2 349.5 163 L 348.5 162 L 327.5 162 L 326.5 163 L 317.5 163 L 316.5 162 L 291.5 162 L 289.5 162 L 285.5 163 L 283.5 163 L 238.5 163 L 237.5 162 L 215 162 L 217 171.5 L 231 209.5 L 229.5 209 Q 226.1 209.9 228 204.5 L 227 201 L 225 200.5 L 225 198.5 L 224 192 L 222 191.5 L 223 189.5 L 221 187.5 Q 220.3 178.7 216 173.5 L 216 171.5 Q 216.8 169.3 214.5 170 L 214 167.5 Q 215.9 162.1 212.5 163 L 210.5 163 L 208.5 164 L 68.5 164 L 66.5 164 L 60 163 L 60.5 165 L 62 164.5 L 61 166.5 Q 65.3 168.8 63.5 171 L 65 171.5 L 65 173.5 Q 64.3 175.8 66.5 175 Q 69.3 176.3 67 177.5 L 67.5 179 L 69 178.5 Q 66.8 179.8 69.5 181 L 73 183.5 L 72.5 185 Q 75.1 184.2 74 187.5 L 77 188.5 Q 74.3 190.2 78.5 192 L 80 191.5 Q 77.8 192.8 80.5 194 Q 85.5 193.5 86 197.5 L 86.5 199 L 88 198.5 Q 85.8 199.8 88.5 201 L 93 202 Q 91.9 204.7 94.5 204 L 108.5 211 L 110.5 211 L 112.5 212 L 114.5 212 L 121.5 214 L 123.5 213 L 127.5 215 L 130.5 214 L 131.5 215 L 223 215.5 L 123.5 216 L 104.5 211 L 94.5 206 L 86.5 201 L 71 185.5 Q 62.7 175.6 59 162 L 213.5 162 L 214 159.5 L 212 154.5 L 214 153.5 Q 211.5 155 215 156.5 Q 214.3 160.3 216.5 161 L 220.5 160 L 221.5 161 L 372.5 161 L 375.5 160 L 380.5 161 L 380 159.5 L 379 156 Q 376 157.3 377 153.5 L 373 147.5 L 373 145 L 371 145 L 371 142 L 369 142 Q 370.1 139.3 367.5 140 L 364.5 136 Q 362.3 136.8 363 134.5 L 360.5 131 Q 359.3 133.3 358 130.5 L 353.5 125 Q 350.2 126.1 351 123.5 L 348 122.5 Q 348.9 119.5 344.5 121 L 344.5 119 L 336 117 L 335.5 115 Q 334 117.5 332.5 114 L 327.5 112 L 325.5 113 L 323.5 111 L 314.5 111 L 313.5 110 L 201.5 110 L 197.5 109 L 196 109.5 L 197.5 108 Z " /><path fill="rgb(117,161,129)" stroke="rgb(117,161,129)" stroke-width="1" opacity="0.2823529411764706" d="M 199.5 113 L 198.5 115 L 199.5 113 Z " /><path fill="rgb(117,161,129)" stroke="rgb(117,161,129)" stroke-width="1" opacity="0.2823529411764706" d="M 0.5 115 L 1 118.5 L 0 118.5 L 0.5 115 Z " /><path fill="rgb(117,161,129)" stroke="rgb(117,161,129)" stroke-width="1" opacity="0.2823529411764706" d="M 199.5 116 L 201 119 Q 197.5 120.1 199.5 116 Z " /><path fill="rgb(117,161,129)" stroke="rgb(117,161,129)" stroke-width="1" opacity="0.2823529411764706" d="M 200.5 120 L 201.5 122 L 203 121.5 L 203 123.5 L 202.5 127 L 200.5 120 Z " /><path fill="rgb(117,161,129)" stroke="rgb(117,161,129)" stroke-width="1" opacity="0.2823529411764706" d="M 203.5 128 L 204 130 Q 207.3 128.7 206 133.5 L 206.5 136 L 208 136.5 L 207.5 138 L 209 138.5 L 208 140.5 L 209 143.5 L 208 143.5 Q 207.5 137 204 133.5 L 203.5 128 Z " /><path fill="rgb(117,161,129)" stroke="rgb(117,161,129)" stroke-width="1" opacity="0.2823529411764706" d="M 210.5 144 L 211 146.5 L 213 149.5 L 211.5 153 L 209 145.5 L 210.5 144 Z " /><path fill="rgb(117,161,129)" stroke="rgb(117,161,129)" stroke-width="1" opacity="0.2823529411764706" d="M 0.5 152 L 1 154.5 L 0 154.5 L 0.5 152 Z " /><path fill="rgb(117,161,129)" stroke="rgb(117,161,129)" stroke-width="1" opacity="0.2823529411764706" d="M 1.5 156 L 5 172.5 L 4 172.5 Q 4.8 170.3 2.5 171 L 2 168.5 L 0 159.5 L 1.5 156 Z " /><path fill="rgb(117,161,129)" stroke="rgb(117,161,129)" stroke-width="1" opacity="0.2823529411764706" d="M 908.5 167 L 1024.5 167 L 1025.5 168 L 1039.5 168 L 1053.5 171 Q 1061.3 174.3 1066 180.5 L 1069 188.5 L 1070 197.5 L 1068 207.5 L 1062.5 216 L 1052.5 222 L 1035.5 225 L 907 225 L 907 168.5 L 908.5 167 Z M 909 170 L 909 172 L 909 222 L 959 222 L 960 223 L 1040 222 L 1041 221 L 1052 220 L 1058 217 L 1065 209 L 1067 198 L 1066 188 L 1064 183 Q 1065 180 1063 181 L 1061 179 L 1053 173 L 1043 172 L 1041 170 L 909 170 Z " /><path fill="rgb(117,161,129)" stroke="rgb(117,161,129)" stroke-width="1" opacity="0.2823529411764706" d="M 4.5 174 L 17 201.5 L 35.5 227 Q 37.8 226.3 37 228.5 L 54.5 244 L 66.5 252 L 87.5 262 L 108.5 268 L 114.5 268 L 120.5 270 L 252 270 L 252 266.5 L 242 238.5 L 243 238.5 Q 245.8 240.5 245 245 Q 247.7 243.9 247 246.5 Q 244.5 248 248 249.5 Q 247.4 255.6 251 257.5 L 251 259.5 L 252 261.5 L 251 262.5 L 254 265.5 L 255.5 269 L 313.5 269 L 315.5 268 L 317.5 269 L 320.5 267 L 323.5 268 L 323.5 266 L 327.5 267 L 333 265 L 333.5 263 Q 335 265.5 336.5 262 Q 341.7 262.2 343.5 259 L 344.5 260 L 347.5 257 L 350.5 255 L 355 252.5 L 356.5 250 Q 358.8 250.8 358 248.5 L 363 245.5 Q 360.7 244.3 363.5 243 L 370 237.5 L 370 235.5 L 375 229.5 L 374.5 228 L 377 226.5 L 378 220.5 L 380 218.5 L 241.5 218 L 238.5 217 L 236 218.5 L 236.5 220 Q 234.3 220.8 235 218.5 Q 232.8 217.3 235.5 216 L 380.5 216 L 382 217.5 Q 375.7 235.2 363.5 247 Q 348.2 262.7 323.5 269 L 318.5 269 L 311.5 271 L 253 271 L 272 323.5 L 270.5 324 Q 267 321.7 268 316 L 266 315.5 L 266 313.5 L 263 305.5 L 264 304.5 L 261 301.5 L 261 299.5 L 260 297.5 L 260 295.5 L 256.5 285 L 255 285.5 Q 256.2 279.8 253 278.5 L 254 276 L 252 275.5 L 252.5 274 L 250.5 273 L 132 273 L 131.5 271 L 127.5 272 L 126.5 271 L 107.5 270 L 105.5 268 L 103.5 269 L 89.5 264 L 88.5 265 L 85.5 262 L 83.5 262 L 79 261 Q 80.1 258.3 77.5 259 L 75 258.5 Q 75.8 256.3 73.5 257 L 72 257.5 Q 72.8 254.9 69.5 256 L 67 255 L 66.5 253 L 65 253.5 L 62.5 250 Q 58.1 251.5 59 248.5 L 48.5 240 Q 47.3 242.3 46 239.5 L 42.5 235 Q 40.3 235.8 41 233.5 L 34 228 L 32.5 225 L 30 223.5 L 29.5 221 L 28 221.5 Q 30.5 220 27 218.5 L 26.5 217 Q 25.3 219.3 24 216.5 Q 26.5 215 23 213.5 L 21.5 211 Q 19.3 211.8 20 209.5 L 16 203.5 L 16 201 L 14 200.5 L 14 198.5 L 9 189.5 L 7.5 183 L 6 183.5 L 7 181.5 L 5 181 L 6 178.5 L 4.5 174 Z " /><path fill="rgb(117,161,129)" stroke="rgb(117,161,129)" stroke-width="1" opacity="0.2823529411764706" d="M 231.5 212 L 233 216 L 231 215.5 L 231 213.5 L 231.5 212 Z " /><path fill="rgb(117,161,129)" stroke="rgb(117,161,129)" stroke-width="1" opacity="0.2823529411764706" d="M 438.5 216 L 440 220.5 L 438 220.5 L 437 225.5 L 437 227.5 L 436 229.5 L 436 231.5 L 436 235 Q 433 233.8 434 237.5 L 431.5 241 L 431 239.5 Q 436.9 229.9 438.5 216 Z " /><path fill="rgb(117,161,129)" stroke="rgb(117,161,129)" stroke-width="1" opacity="0.2823529411764706" d="M 236 221 L 238 221.5 L 236 222.5 L 236 221 Z " /><path fill="rgb(117,161,129)" stroke="rgb(117,161,129)" stroke-width="1" opacity="0.2823529411764706" d="M 240.5 229 L 241 231.5 L 242 236.5 L 241 236.5 L 239 230.5 L 240.5 229 Z " /><path fill="rgb(117,161,129)" stroke="rgb(117,161,129)" stroke-width="1" opacity="0.2823529411764706" d="M 430.5 242 L 431 243.5 L 427.5 250 L 427 248.5 L 430.5 242 Z " /><path fill="rgb(117,161,129)" stroke="rgb(117,161,129)" stroke-width="1" opacity="0.2823529411764706" d="M 426 251 L 428 251.5 Q 422.5 256.6 421 265 Q 418.3 263.9 419 266.5 L 417.5 269 L 416 268.5 L 412.5 275 L 411 275.5 L 411.5 277 Q 410.3 274.8 409 277.5 L 407 282 L 400 287.5 Q 400.8 289.8 398.5 289 L 396 293 L 392 294.5 L 390.5 297 L 387 298.5 L 387.5 300 L 386 298.5 L 389.5 295 L 406 280.5 Q 418.4 267.6 426 251 Z " /><path fill="rgb(117,161,129)" stroke="rgb(117,161,129)" stroke-width="1" opacity="0.2823529411764706" d="M 383.5 300 L 383.5 303 L 381.5 303 L 378 304.5 L 378.5 306 L 377.5 305 L 374.5 308 L 370 309 Q 371.3 312 367.5 311 L 357.5 317 L 355 316 Q 356.1 318.7 353.5 318 L 351.5 318 L 347 319 L 346.5 321 L 344.5 321 L 331.5 324 L 329.5 323 Q 328 325.5 322.5 324 L 322.5 323 L 334.5 322 L 356.5 315 L 371.5 308 L 383.5 300 Z " /><path fill="rgb(255,255,255)" stroke="rgb(255,255,255)" stroke-width="1" opacity="1" d="M 524 31 L 763.5 31 L 764 31.5 L 764 62.5 L 763 67.5 L 764 71 L 747.5 71 L 746.5 72 L 583.5 72 L 581.5 72 L 573 70 L 574 75.5 L 574 121.5 L 572 125.5 L 575.5 128 L 577 125 L 730.5 125 L 731.5 126 L 733 125.5 L 729 127.5 L 733 130.5 L 732 160.5 L 733 163 L 727 164 Q 728.3 167.3 723.5 166 L 722.5 167 L 580.5 167 L 577.5 166 L 574 168.5 L 574 223.5 L 575.5 225 L 766.5 225 L 767 225.5 L 767 263.5 L 765.5 263 Q 761.8 262.3 761 264.5 L 761.5 266 L 524 266 L 524 37.5 L 523 35.5 L 524 31 Z " /><path fill="rgb(255,255,255)" stroke="rgb(255,255,255)" stroke-width="1" opacity="1" d="M 854 31 L 1038.5 31 L 1039.5 32 L 1049.5 32 L 1064.5 36 L 1071.5 40 L 1081.5 43 L 1090 49.5 Q 1089.2 52.1 1092.5 51 L 1099.5 59 Q 1102.5 58.1 1101 62.5 L 1105 66.5 L 1109 78.5 L 1109 98.5 L 1106.5 104 L 1104 105.5 Q 1102.8 110.3 1105 111.5 L 1103 112 L 1101 115.5 L 1101 119 L 1093 125.5 L 1091 128.5 Q 1090.3 130.8 1086.5 130 L 1078.5 136 L 1059.5 138 L 1057 140.5 Q 1056.3 145.3 1059.5 146 L 1070.5 146 L 1081.5 150 L 1085.5 150 L 1103 159.5 L 1104.5 162 Q 1108.5 161.5 1109 164.5 Q 1108.3 166.8 1110.5 166 L 1120 180.5 L 1120 185.5 L 1123 193.5 L 1123 211.5 L 1119 225.5 L 1112 234.5 L 1112 239 Q 1108.3 237.5 1109 240.5 L 1108 243 L 1099 248.5 Q 1099.8 250.8 1097.5 250 L 1092 252 Q 1093.1 254.7 1090.5 254 L 1089 253.5 L 1086.5 257 L 1083 256 Q 1084.3 259 1080.5 258 L 1075.5 261 L 1059.5 263 L 1057.5 265 L 1044.5 265 L 1043.5 266 L 1040.5 265 L 1039.5 266 L 854 266 L 854.5 264 L 858.5 265 L 858.5 264 Q 854.8 265.3 856 261.5 L 854 252.5 L 854 31 Z M 906 68 L 904 70 L 904 127 L 906 128 L 1025 128 Q 1026 126 1032 127 L 1036 125 Q 1040 124 1042 126 L 1052 120 Q 1051 117 1054 118 L 1060 110 L 1060 108 L 1061 106 L 1060 98 Q 1062 96 1059 95 L 1060 93 L 1058 83 L 1053 79 Q 1050 80 1051 78 L 1045 73 L 1030 69 L 1013 69 L 1012 68 L 906 68 Z M 904 164 L 904 227 L 906 228 L 1035 228 L 1039 226 L 1048 227 L 1047 226 L 1053 225 Q 1054 221 1061 222 L 1062 219 L 1067 217 L 1072 208 L 1072 188 L 1069 181 Q 1070 178 1067 179 L 1066 176 L 1061 172 Q 1058 173 1059 170 L 1049 168 L 1047 166 Q 1039 167 1035 164 L 1033 165 L 908 165 L 904 164 Z " /><path fill="rgb(255,255,255)" stroke="rgb(255,255,255)" stroke-width="1" opacity="1" d="M 1178 31 L 1437.5 31 L 1438 32.5 L 1439 33.5 L 1439 70.5 L 1437.5 72 L 1422.5 73 L 1419.5 72 L 1414.5 73 L 1413.5 72 L 1396.5 71 L 1388.5 73 L 1335 73 L 1334.5 71 L 1333 72.5 L 1333 80.5 L 1332 81.5 L 1332 261 L 1328 262.5 L 1329.5 265 L 1332 265.5 L 1282.5 266 L 1283 264.5 L 1283 254.5 L 1282 253.5 L 1282 73 L 1230.5 73 L 1228.5 72 L 1227.5 73 L 1209.5 73 L 1206.5 72 Q 1205 74.5 1199.5 73 L 1197.5 71 L 1182.5 71 L 1181.5 70 L 1179 71 L 1180 66.5 L 1178 64.5 L 1178 31 Z " /><path fill="rgb(255,255,255)" stroke="rgb(255,255,255)" stroke-width="1" opacity="1" d="M 81.5 76 L 80.5 78 L 81.5 76 Z " /><path fill="rgb(40,202,72)" stroke="rgb(40,202,72)" stroke-width="1" opacity="0.996078431372549" d="M 133.5 1 L 152.5 1 L 156 2 L 173 51.5 L 170.5 52 L 157.5 51 L 156.5 52 L 143.5 52 Q 142 49.5 136.5 51 L 135.5 52 L 116.5 53 L 93 62 Q 94.3 65 90.5 64 L 83 69.5 Q 83.8 71.8 81.5 71 L 79 72 L 77.5 75 L 75 76.5 L 71 83 Q 68.3 81.9 69 84.5 L 61 95.5 Q 60.7 101.7 57 104.5 L 57 110 L 181.5 110 L 183.5 111 L 184.5 110 L 193.5 110 L 202 130.5 L 202 134.5 L 205 139.5 L 211 158.5 Q 209.5 161.5 203.5 160 Q 202 157.5 196.5 159 L 195.5 160 L 142.5 160 L 141.5 159 L 132.5 159 L 131.5 160 L 109.5 160 L 108.5 159 L 88.5 159 Q 86.8 161.7 80.5 160 L 77.5 159 L 76.5 160 L 60.5 160 L 58.5 159 Q 55.5 159.5 56 163.5 Q 64 182.5 77.5 196 L 83 200.5 Q 82.3 202.8 84.5 202 L 90 204 L 91.5 207 L 105.5 214 L 120.5 218 L 232 218 L 235 223.5 L 238 235.5 L 250 267.5 L 123.5 268 L 116.5 266 L 114.5 266 L 108.5 266 L 90.5 261 L 88.5 259 L 80.5 257 L 72 253 Q 73.3 250 69.5 251 L 51 239 L 49.5 236 L 44 232.5 L 41.5 229 Q 39.3 229.8 40 227.5 L 37 226 L 35 221 L 32 219.5 L 21 204.5 L 10 181.5 L 9 175 Q 5.3 176.3 7 170.5 L 5 159.5 L 3 156.5 L 3 143.5 L 0 137.5 L 0 132.5 L 3 126.5 L 3 115.5 L 5 113.5 L 5 106.5 L 7 96.5 L 9 94.5 L 10 88.5 L 18 70 Q 20.7 71.1 20 68.5 L 25 61.5 L 25 59 Q 27.7 60.1 27 57.5 L 41.5 40 L 59.5 25 L 81.5 13 L 84.5 13 L 96.5 7 L 106.5 5 L 113.5 5 L 115.5 3 L 131.5 3 L 133.5 1 Z " /><path fill="rgb(40,202,72)" stroke="rgb(40,202,72)" stroke-width="1" opacity="0.996078431372549" d="M 180 57 L 318.5 57 L 319.5 58 L 335.5 59 L 338.5 61 L 356.5 66 L 373 74 Q 371.8 77 375.5 76 L 381.5 81 L 384 81 Q 382.9 83.7 385.5 83 L 389 85 Q 387.9 87.7 390.5 87 L 395 90 L 396.5 93 L 408 103.5 L 411 110 L 414 111.5 L 424 127.5 L 430 142.5 L 432 144.5 L 432 148.5 L 437 164.5 L 438 180.5 L 439 181.5 L 438 183.5 L 439 184.5 L 439 199.5 L 438 202.5 L 436 220.5 L 434 223.5 L 432 234.5 L 421 257 Q 418 255.8 419 259.5 L 417 264 Q 414.3 262.9 415 265.5 L 412.5 269 Q 409.9 268.2 411 271.5 L 395.5 288 L 389 292 Q 390.1 294.7 387.5 294 L 372.5 305 L 358 311 Q 359.4 314.7 353.5 313 L 342.5 318 L 337.5 318 L 326.5 321 L 273 322 L 256 273 L 316.5 273 L 318.5 271 L 329.5 270 L 346.5 263 L 363 251 L 364.5 248 L 367 246.5 L 371 240 Q 373.7 241.1 373 238.5 L 378 232.5 L 384 220.5 L 384 215.5 L 382.5 214 L 235 214 L 227 192.5 L 227.5 191 Q 224.5 191.9 226 187.5 L 218 165 L 382.5 165 L 384 163.5 L 384 159.5 L 382 157.5 L 378 146.5 L 368.5 134 Q 366.3 134.8 367 132.5 L 360 127 Q 361.1 124.3 358.5 125 Q 351.2 117.3 340.5 113 L 319.5 106 L 197.5 106 L 196 104.5 L 191 91.5 L 191 88.5 L 189 86.5 L 188 80.5 L 185 75.5 L 184 68.5 Q 180 64.3 180 57 Z " /></svg>