<svg xmlns="http://www.w3.org/sdfsvg" xmlns:xlink="http://www.wsdfsf999/xlink" version="1.2" id="Logo1" x="0px" y="0px" style="enable-background:new 0 0 252 124.3;" xml:space="preserve" viewBox="0 33.8 252 56.8">
<style type="text/css">
  .st0{fill:#FFFFFF;}
  .st1{fill:#28CA48;}
</style>

<g>
	<g>
		<path class="st0" d="M134.7,72.7v8.1H91.2V38.6h42.9v8.1h-33.3v8.7h27.8v8.1h-27.8v9.3L134.7,72.7L134.7,72.7z"/>
		<path class="st0" d="M197,69.2c0,7.5-6.4,11.6-16.5,11.6H149V38.6h29c10.1,0,16.5,4,16.5,10.8c0,4.8-3.1,8.9-9.4,9.3    C191.8,59.1,197,62.5,197,69.2z M158.6,55.7h17.9c5.2,0,8.5-0.8,8.5-4.8s-3.3-4.8-8.5-4.8h-17.9V55.7L158.6,55.7z M187.1,68.1    c0-4.3-3.2-5.1-8.6-5.1h-19.9v10.1h19.9C183.9,73.2,187.1,72.3,187.1,68.1L187.1,68.1z"/>
		<path class="st0" d="M252,46.9h-18.5v33.9h-9.6V46.9h-18.3v-8.3H252V46.9L252,46.9z"/>
	</g>
	<path class="st1" d="M44.2,81H23.6C10.6,81,0,70.4,0,57.4s10.6-23.6,23.6-23.6h3.8l3.3,9.4h-7.1c-7.9,0-14.3,6.4-14.3,14.3   s6.4,14.3,14.3,14.3h17.2L44.2,81L44.2,81z"/>
	<polygon class="st1" points="37.5,62.1 4.6,62.1 4.6,52.7 34.1,52.7  "/>
	<path class="st1" d="M53.4,90.6h-5.9l-3.3-9.4h9.2c7.9,0,14.3-6.4,14.3-14.3s-6.4-14.3-14.3-14.3H34.1l-3.4-9.4h22.7   c13,0,23.6,10.6,23.6,23.6S66.5,90.6,53.4,90.6L53.4,90.6z"/>
	<polygon class="st1" points="72.4,71.6 40.8,71.6 37.5,62.2 72.4,62.2  "/>
</g>
</svg>